<svg width="87" height="24" viewBox="0 0 87 24" fill="none" xmlns="http://www.w3.org/2000/svg">
<path d="M2.62379 23.76C3.3603 23.76 4.09681 23.424 4.60316 22.8L22.4174 1.296C21.9111 0.48 21.0825 0 20.2079 0C19.4714 0 18.7349 0.336 18.2286 0.912L0.322205 22.368C0.782522 23.232 1.65713 23.76 2.62379 23.76Z" fill="url(#paint0_linear)"/>
<path d="M2.62381 23.76C3.0381 23.76 3.45238 23.664 3.82064 23.472V5.472L17.6762 22.8C18.1825 23.424 18.919 23.76 19.7016 23.76H20.254C21.681 23.76 22.8778 22.56 22.8778 21.024V2.736C22.7857 1.2 21.6349 0 20.2079 0C19.7937 0 19.3794 0.096 19.0111 0.288V18.288L5.15556 0.96C4.64921 0.336 3.9127 0 3.13016 0H2.62381C1.15079 0 0 1.2 0 2.736V21.072C0 22.56 1.15079 23.76 2.62381 23.76Z" fill="#0C004F"/>
<path d="M43.3619 4.94395V18.816C43.3619 18.912 43.2699 19.008 43.1778 19.008H41.7968C41.1524 19.008 40.554 18.672 40.1857 18.096L33.9254 8.01595L34.1556 13.056V18.816C34.1556 18.912 34.0635 19.008 33.9714 19.008H32.1302C32.0381 19.008 31.946 18.912 31.946 18.816V4.94395C31.946 4.84795 32.0381 4.75195 32.1302 4.75195H33.5111C34.1556 4.75195 34.754 5.08795 35.1222 5.66395L41.3826 15.744L41.1984 10.704V4.94395C41.1984 4.84795 41.2905 4.75195 41.3826 4.75195H43.2238C43.3159 4.75195 43.3619 4.84795 43.3619 4.94395Z" fill="#0C004F"/>
<path d="M62.0968 19.008H60.1635C60.0714 19.008 59.9794 18.912 59.9794 18.816V18.768L65.0889 4.94395C65.1349 4.84795 65.227 4.75195 65.3651 4.75195H67.8048C67.9429 4.75195 68.0349 4.84795 68.081 4.94395L73.1905 18.768C73.2365 18.864 73.1905 19.008 73.0524 19.008H73.0064H71.073C70.981 19.008 70.9349 18.96 70.8889 18.864L66.746 7.48795C66.7 7.39195 66.6079 7.34395 66.5159 7.39195C66.4699 7.39195 66.4238 7.43995 66.4238 7.48795L62.281 18.864C62.2349 18.96 62.1429 19.008 62.0968 19.008Z" fill="#0C004F"/>
<path d="M86.6317 18.72L82.7651 13.584C84.9286 13.152 86.2174 11.616 86.2174 9.26395C86.2174 6.57595 84.5603 4.75195 81.5682 4.75195H76.1825C76.0444 4.75195 75.9063 4.89595 75.9063 5.03995C75.9063 6.09595 76.7349 6.95995 77.7476 6.95995H81.3381C83.1333 6.95995 84.0079 7.91995 84.0079 9.31195C84.0079 10.704 83.1794 11.712 81.3381 11.712H76.1825C76.0444 11.712 75.9063 11.856 75.9063 12V18.864C75.9063 18.96 75.9984 19.056 76.0905 19.056H77.9317C78.0238 19.056 78.1159 18.96 78.1159 18.864V13.728H80.2333L83.5476 18.288C83.9159 18.768 84.4682 19.056 85.0667 19.056H86.4476C86.5397 19.056 86.6317 18.96 86.6317 18.864C86.6317 18.768 86.6317 18.72 86.6317 18.72Z" fill="#0C004F"/>
<path d="M56.2968 4.75195H47.827C47.6889 4.75195 47.5508 4.84795 47.5508 5.03995C47.5508 6.09595 48.3794 6.95995 49.3921 6.95995H56.2968C56.3889 6.95995 56.481 6.86395 56.481 6.76795V4.94395C56.481 4.84795 56.3889 4.75195 56.2968 4.75195ZM56.2968 16.8H49.9445C49.8524 16.8 49.7603 16.704 49.7603 16.608V13.008C49.7603 12.912 49.8524 12.816 49.9445 12.816H55.7905C55.8826 12.816 55.9746 12.72 55.9746 12.624V10.8C55.9746 10.704 55.8826 10.608 55.7905 10.608H47.827C47.6889 10.608 47.5508 10.752 47.5508 10.896V18.72C47.5508 18.864 47.6889 19.008 47.827 19.008H56.2968C56.3889 19.008 56.481 18.912 56.481 18.816V16.992C56.481 16.896 56.3889 16.8 56.2968 16.8Z" fill="#0C004F"/>
<defs>
<linearGradient id="paint0_linear" x1="0.763604" y1="22.9836" x2="22.9317" y2="1.72447" gradientUnits="userSpaceOnUse">
<stop offset="0.21" stop-color="#0C004F"/>
<stop offset="0.42" stop-color="#24272A" stop-opacity="0"/>
<stop offset="0.59" stop-color="#24272A" stop-opacity="0"/>
<stop offset="0.81" stop-color="#0C004F"/>
</linearGradient>
</defs>
</svg>